<svg width="60" height="60" viewBox="0 0 60 60" fill="none" xmlns="http://www.w3.org/2000/svg">
<rect width="60" height="60" rx="30" fill="#F7F8FA"/>
<path d="M40.6666 42V39.3333C40.6666 37.9188 40.1047 36.5623 39.1045 35.5621C38.1043 34.5619 36.7477 34 35.3333 34H24.6666C23.2521 34 21.8955 34.5619 20.8953 35.5621C19.8952 36.5623 19.3333 37.9188 19.3333 39.3333V42" stroke="#999EAD" stroke-width="2" stroke-linecap="round" stroke-linejoin="round"/>
<path d="M30.0001 28.6667C32.9456 28.6667 35.3334 26.2789 35.3334 23.3333C35.3334 20.3878 32.9456 18 30.0001 18C27.0546 18 24.6667 20.3878 24.6667 23.3333C24.6667 26.2789 27.0546 28.6667 30.0001 28.6667Z" stroke="#999EAD" stroke-width="2" stroke-linecap="round" stroke-linejoin="round"/>
</svg>
