<svg width="39" height="39" viewBox="0 0 39 39" fill="none" xmlns="http://www.w3.org/2000/svg">
<path d="M39 29.9L16.9 29.9M16.9 29.9C16.9 32.7719 14.5719 35.1 11.7 35.1C8.82812 35.1 6.5 32.7719 6.5 29.9M16.9 29.9C16.9 27.0281 14.5719 24.7 11.7 24.7C8.82812 24.7 6.5 27.0281 6.5 29.9M6.5 29.9L2.27299e-07 29.9M39 9.09999L32.5 9.09998M32.5 9.09998C32.5 11.9719 30.1719 14.3 27.3 14.3C24.4281 14.3 22.1 11.9719 22.1 9.09998M32.5 9.09998C32.5 6.2281 30.1719 3.89998 27.3 3.89998C24.4281 3.89998 22.1 6.2281 22.1 9.09998M22.1 9.09998L1.46708e-06 9.09998" stroke="black" stroke-width="4"/>
</svg>
