<svg width="121" height="18" viewBox="0 0 121 18" fill="none" xmlns="http://www.w3.org/2000/svg">
<path d="M9 1.5L11.3175 6.195L16.5 6.9525L12.75 10.605L13.635 15.765L9 13.3275L4.365 15.765L5.25 10.605L1.5 6.9525L6.6825 6.195L9 1.5Z" fill="#F5D140"/>
<path d="M35 1.5L37.3175 6.195L42.5 6.9525L38.75 10.605L39.635 15.765L35 13.3275L30.365 15.765L31.25 10.605L27.5 6.9525L32.6825 6.195L35 1.5Z" fill="#F5D140"/>
<path d="M60.5001 1.5L62.6888 6.195L67.5834 6.9525L64.0417 10.605L64.8776 15.765L60.5001 13.3275L56.1226 15.765L56.9584 10.605L53.4167 6.9525L58.3113 6.195L60.5001 1.5Z" fill="#F5D140"/>
<path d="M86 1.5L88.3175 6.195L93.5 6.9525L89.75 10.605L90.635 15.765L86 13.3275L81.365 15.765L82.25 10.605L78.5 6.9525L83.6825 6.195L86 1.5Z" fill="#F5D140"/>
<path d="M112 1.5L114.318 6.195L119.5 6.9525L115.75 10.605L116.635 15.765L112 13.3275L107.365 15.765L108.25 10.605L104.5 6.9525L109.682 6.195L112 1.5Z" fill="#F5D140"/>
</svg>
